<?xml version="1.0" encoding="utf-8"?>
<!-- Generator: Adobe Illustrator 23.0.2, SVG Export Plug-In . SVG Version: 6.00 Build 0)  -->
<svg version="1.1" xmlns="http://www.w3.org/2000/svg" xmlns:xlink="http://www.w3.org/1999/xlink" x="0px" y="0px"
	 viewBox="0 0 64 64" style="enable-background:new 0 0 64 64;" xml:space="preserve">
<style type="text/css">
	.st0{fill:#0E2340;}
	.st1{fill:#FBC21D;}
	.st2{fill:none;}
	.st3{fill:none;stroke:url(#SVGID_1_);stroke-miterlimit:10;}
</style>
<g id="图层_1">
	<rect class="st0" width="64" height="64"/>
	<g>
		<path class="st1" d="M45.22,19.87L20.85,44.24c-0.17,0.17-0.43,0.17-0.6,0l-1.2-1.2c-0.17-0.17-0.17-0.43,0-0.6l24.37-24.37
			c0.17-0.17,0.43-0.17,0.6,0l1.2,1.2C45.38,19.44,45.38,19.7,45.22,19.87z"/>
		<path class="st1" d="M56.78,31.22L44.02,43.97c-0.17,0.17-0.43,0.17-0.6,0l-1.2-1.2c-0.17-0.17-0.17-0.43,0-0.6l12.75-12.75
			c0.17-0.17,0.43-0.17,0.6,0l1.2,1.2C56.94,30.79,56.94,31.06,56.78,31.22z"/>
		<path class="st1" d="M22,19.68L9.24,32.44c-0.17,0.17-0.43,0.17-0.6,0l-1.2-1.2c-0.17-0.17-0.17-0.43,0-0.6L20.2,17.89
			c0.17-0.17,0.43-0.17,0.6,0l1.2,1.2C22.16,19.25,22.16,19.52,22,19.68z"/>
		<path class="st1" d="M25.37,27.9L14.96,38.32c-0.17,0.17-0.43,0.17-0.6,0l-1.2-1.2c-0.17-0.17-0.17-0.43,0-0.6l10.41-10.41
			c0.17-0.17,0.43-0.17,0.6,0l1.2,1.2C25.53,27.47,25.53,27.74,25.37,27.9z"/>
		<path class="st1" d="M51.16,25.8L40.75,36.21c-0.17,0.17-0.43,0.17-0.6,0l-1.2-1.2c-0.17-0.17-0.17-0.43,0-0.6L49.37,24
			c0.17-0.17,0.43-0.17,0.6,0l1.2,1.2C51.33,25.36,51.33,25.63,51.16,25.8z"/>
		<path class="st1" d="M43.42,44.03L19.05,19.66c-0.17-0.17-0.17-0.43,0-0.6l1.2-1.2c0.17-0.17,0.43-0.17,0.6,0l24.37,24.37
			c0.17,0.17,0.17,0.43,0,0.6l-1.2,1.2C43.86,44.2,43.59,44.2,43.42,44.03z"/>
		<path class="st1" d="M20.22,44.23l-7.06-7.06c-0.17-0.17-0.17-0.43,0-0.6l1.2-1.2c0.17-0.17,0.43-0.17,0.6,0l7.06,7.06
			c0.17,0.17,0.17,0.43,0,0.6l-1.2,1.2C20.65,44.4,20.38,44.4,20.22,44.23z"/>
		<path class="st1" d="M49.39,26.88l-7.06-7.06c-0.17-0.17-0.17-0.43,0-0.6l1.2-1.2c0.17-0.17,0.43-0.17,0.6,0l7.06,7.06
			c0.17,0.17,0.17,0.43,0,0.6l-1.2,1.2C49.82,27.04,49.56,27.04,49.39,26.88z"/>
	</g>
</g>
<g id="图层_2">
	<rect x="1.67" y="11.56" class="st2" width="60.89" height="38.22"/>
	<linearGradient id="SVGID_1_" gradientUnits="userSpaceOnUse" x1="3.5" y1="31.5" x2="61.5" y2="31.5">
		<stop  offset="0" style="stop-color:#78EFE5"/>
		<stop  offset="1" style="stop-color:#FD91F8"/>
		<stop  offset="1" style="stop-color:#3DDEED;stop-opacity:0.9637"/>
	</linearGradient>
	<rect x="4" y="15.33" class="st3" width="57" height="32.33"/>
</g>
</svg>
